<svg width="31" height="35" fill="none" xmlns="http://www.w3.org/2000/svg"><path d="M26 20v-3h-2v3a1 1 0 0 0 0 1l3 3v2H3v-2l3-3v-7c0-2 1-5 3-6 1-2 4-3 6-3l5 1V3h-4V0h-2v3c-3 0-5 1-7 3-2 3-3 5-3 8v6l-3 3a1 1 0 0 0-1 1v4a1 1 0 0 0 1 0v1h8l2 4 4 2 4-2 2-4h8a1 1 0 0 0 0-1 1 1 0 0 0 1 0v-4a1 1 0 0 0-1-1l-3-3ZM15 32l-2-1-1-2h6l-1 2-2 1Z" fill="url(#a)"/><path d="M26 13c3 0 5-2 5-5 0-2-2-4-5-4-2 0-4 2-4 4 0 3 2 5 4 5Z" fill="url(#b)"/><defs><linearGradient id="a" x1=".4" y1=".1" x2="26.2" y2=".1" gradientUnits="userSpaceOnUse"><stop stop-color="#FE5C28"/><stop offset="1" stop-color="#FF8B36" stop-opacity=".9"/></linearGradient><linearGradient id="b" x1="21.8" y1="3.7" x2="29.7" y2="3.7" gradientUnits="userSpaceOnUse"><stop stop-color="#FE5C28"/><stop offset="1" stop-color="#FF8B36" stop-opacity=".9"/></linearGradient></defs></svg>