<svg width="38" height="40" fill="none" xmlns="http://www.w3.org/2000/svg"><path d="M19 1C9 1 1 10 1 20s8 19 18 19 18-9 18-19S29 1 19 1ZM3 22l5 2 1 6-2 1c-2-2-4-5-4-9Zm16 15c-4 0-8-1-11-4l2-1c3 3 6 4 9 4s6-1 9-4l2 1c-3 3-7 4-11 4ZM9 24c0-3 3-4 6-4h8c3 0 6 1 6 4 0 6-5 11-10 11S9 30 9 24Zm22 7-2-1a13 13 0 0 0 1-6l5-2c0 4-2 7-4 9Zm-1-9c-2-3-5-3-7-3a56 56 0 0 0-6 0h-2c-2 0-5 0-7 3l-5-2c0-4 1-7 3-10v1a8 8 0 0 1 7-2l1-2c-3 0-5 0-7 2 3-4 7-6 12-6s9 2 12 6c-2-2-4-2-7-2l1 2c2-1 5 0 7 2v-1c2 3 3 6 3 10l-5 2Z" fill="#DC1E1E"/><path d="M22 13h-1c1 5 6 7 10 3v-1c-3 1-7 0-9-2ZM16 13c-2 2-6 3-9 2v1c4 4 9 2 10-3h-1Z" fill="#DC1E1E"/></svg>